# xmcd
#
# Track frame offsets:
#	150
#	22223
#	45107
#	69219
#	89100
#	113833
#	139332
#	159387
#	180404
#	207128
#	231722
#	250816
#	276987
#	299379
#
# Disc length: 4135 seconds
#
# Revision: 1
# Processed by: cddbd v1.5.2PL0 Copyright (c) Steve Scherf et al.
# Submitted via: audiograbber 1.83.01
#
DISCID=ce10250e
DTITLE=Vince Andrews - Urban Trafic Vince Andrews
DYEAR=1999
DGENRE=Rock
TTITLE0=Urban Trafic
TTITLE1=Pain
TTITLE2=Love Might Have Passed Me By
TTITLE3=High Heel Shoes
TTITLE4=Come Ride With Me
TTITLE5=Looking Out The Window
TTITLE6=Talking Back Home
TTITLE7=Stay Home Today
TTITLE8=Minute By Minute
TTITLE9=Days End
TTITLE10=More Than Words Could Say
TTITLE11=Can I Play My Horn For You
TTITLE12=In Your Arms
TTITLE13=Practice Peace
EXTD=
EXTT0=
EXTT1=
EXTT2=
EXTT3=
EXTT4=
EXTT5=
EXTT6=
EXTT7=
EXTT8=
EXTT9=
EXTT10=
EXTT11=
EXTT12=
EXTT13=
PLAYORDER=
